<svg width="676.2253173828125px" height="254.2399963378906px" xmlns="http://www.w3.org/2000/svg" viewBox="-88.11265869140624 -52.1199981689453 676.2253173828125 254.2399963378906" style="background: rgba(3, 3, 3, 0);" preserveAspectRatio="xMidYMid"><defs><filter id="editing-extrusion" x="-100%" y="-100%" width="300%" height="300%"><feFlood result="color1" flood-color="#0e4400"></feFlood><feConvolveMatrix order="10,10" divisor="1" kernelMatrix="1 0 0 0 0 0 0 0 0 0 0 1 0 0 0 0 0 0 0 0 0 0 1 0 0 0 0 0 0 0 0 0 0 1 0 0 0 0 0 0 0 0 0 0 1 0 0 0 0 0 0 0 0 0 0 1 0 0 0 0 0 0 0 0 0 0 1 0 0 0 0 0 0 0 0 0 0 1 0 0 0 0 0 0 0 0 0 0 1 0 0 0 0 0 0 0 0 0 0 1" in="SourceAlpha" result="extrude"></feConvolveMatrix><feComposite in="color1" in2="extrude" result="comp-extrude" operator="in"></feComposite><feOffset dx="5" dy="5" in="comp-extrude" result="offset-extrude"></feOffset><feMerge><feMergeNode in="offset-extrude"></feMergeNode><feMergeNode in="SourceGraphic"></feMergeNode></feMerge></filter></defs><g filter="url(#editing-extrusion)"><g transform="translate(10.967023015022278, 137.48500633239746)"><path d="M59.94-4.09L59.94-4.09L59.94-4.09Q59.94-6.36 60.26-8.63L60.26-8.63L60.26-8.63Q60.58-10.90 60.99-13.12L60.99-13.12L60.99-13.12Q61.39-15.35 61.71-17.66L61.71-17.66L61.71-17.66Q62.03-19.98 62.03-22.34L62.03-22.34L62.03-22.34Q59.03-22.34 56.85-22.07L56.85-22.07L56.85-22.07Q54.67-21.80 52.58-21.52L52.58-21.52L52.58-21.52Q50.50-21.25 48.13-21.12L48.13-21.12L48.13-21.12Q45.77-20.98 42.41-21.16L42.41-21.16L42.41-21.16Q39.96-18.44 36.83-15.35L36.83-15.35L36.83-15.35Q33.69-12.26 30.15-9.63L30.15-9.63L30.15-9.63Q26.61-6.99 22.71-5.22L22.71-5.22L22.71-5.22Q18.80-3.45 14.80-3.45L14.80-3.45L14.80-3.45Q12.08-3.45 9.58-4.36L9.58-4.36L9.58-4.36Q7.08-5.27 5.18-6.90L5.18-6.90L5.18-6.90Q3.27-8.54 2.18-10.85L2.18-10.85L2.18-10.85Q1.09-13.17 1.09-15.98L1.09-15.98L1.09-15.98Q1.09-17.44 1.59-18.21L1.59-18.21L1.59-18.21Q2.09-18.98 3.72-18.98L3.72-18.98L3.72-18.98Q4.54-18.98 5.18-17.48L5.18-17.48L5.18-17.48Q5.81-15.98 6.86-14.12L6.86-14.12L6.86-14.12Q7.90-12.26 9.54-10.76L9.54-10.76L9.54-10.76Q11.17-9.26 13.99-9.26L13.99-9.26L13.99-9.26Q17.44-9.26 20.75-10.58L20.75-10.58L20.75-10.58Q24.07-11.90 27.11-13.94L27.11-13.94L27.11-13.94Q30.15-15.98 32.83-18.53L32.83-18.53L32.83-18.53Q35.51-21.07 37.69-23.52L37.69-23.52L37.69-23.52Q37.42-25.79 36.06-26.88L36.06-26.88L36.06-26.88Q34.69-27.97 33.19-29.06L33.19-29.06L33.19-29.06Q31.70-30.15 30.52-31.97L30.52-31.97L30.52-31.97Q29.33-33.79 29.33-37.69L29.33-37.69L29.33-37.69Q29.33-43.23 32.70-46.36L32.70-46.36L32.70-46.36Q36.06-49.50 41.87-49.50L41.87-49.50L41.87-49.50Q43.59-49.50 45.27-49.13L45.27-49.13L45.27-49.13Q46.95-48.77 48.68-48.27L48.68-48.27L48.68-48.27Q50.41-47.77 52.09-47.41L52.09-47.41L52.09-47.41Q53.77-47.04 55.49-47.04L55.49-47.04L55.49-47.04Q56.58-47.04 57.26-47.32L57.26-47.32L57.26-47.32Q57.94-47.59 58.49-48.13L58.49-48.13L58.49-48.13Q59.03-48.68 59.67-49.59L59.67-49.59L59.67-49.59Q60.30-50.50 61.30-51.77L61.30-51.77L61.30-51.77Q61.85-52.49 62.98-54.08L62.98-54.08L62.98-54.08Q64.12-55.67 65.48-57.63L65.48-57.63L65.48-57.63Q66.84-59.58 68.39-61.76L68.39-61.76L68.39-61.76Q69.93-63.94 71.29-65.94L71.29-65.94L71.29-65.94Q72.66-67.93 73.75-69.48L73.75-69.48L73.75-69.48Q74.84-71.02 75.29-71.84L75.29-71.84L75.29-71.84Q76.29-72.66 77.11-72.88L77.11-72.88L77.11-72.88Q77.92-73.11 79.01-73.11L79.01-73.11L79.01-73.11Q80.10-73.11 80.65-72.34L80.65-72.34L80.65-72.34Q81.19-71.57 81.33-70.48L81.33-70.48L81.33-70.48Q81.47-69.39 81.42-68.25L81.42-68.25L81.42-68.25Q81.38-67.12 81.38-66.48L81.38-66.48L81.38-66.48Q81.38-66.21 81.38-65.62L81.38-65.62L81.38-65.62Q81.38-65.03 81.33-64.39L81.33-64.39L81.33-64.39Q81.28-63.76 81.28-63.17L81.28-63.17L81.28-63.17Q81.28-62.58 81.28-62.39L81.28-62.39L81.28-62.39Q81.01-61.49 80.42-59.67L80.42-59.67L80.42-59.67Q79.83-57.85 79.10-55.54L79.10-55.54L79.10-55.54Q78.38-53.22 77.61-50.68L77.61-50.68L77.61-50.68Q76.83-48.13 76.15-45.77L76.15-45.77L76.15-45.77Q75.47-43.41 74.93-41.60L74.93-41.60L74.93-41.60Q74.38-39.78 74.20-38.87L74.20-38.87L74.20-38.87Q74.11-38.42 73.93-37.42L73.93-37.42L73.93-37.42Q73.75-36.42 73.56-35.28L73.56-35.28L73.56-35.28Q73.38-34.15 73.20-33.15L73.20-33.15L73.20-33.15Q73.02-32.15 73.02-31.79L73.02-31.79L73.02-31.79Q73.84-31.61 74.65-31.24L74.65-31.24L74.65-31.24Q75.47-30.88 75.47-30.06L75.47-30.06L75.47-30.06Q75.47-29.15 74.79-28.61L74.79-28.61L74.79-28.61Q74.11-28.06 73.20-27.61L73.20-27.61L73.20-27.61Q72.29-27.16 71.52-26.52L71.52-26.52L71.52-26.52Q70.75-25.88 70.66-24.70L70.66-24.70L70.66-24.70Q70.48-23.61 70.02-20.75L70.02-20.75L70.02-20.75Q69.57-17.89 68.98-14.67L68.98-14.67L68.98-14.67Q68.39-11.44 67.89-8.63L67.89-8.63L67.89-8.63Q67.39-5.81 67.12-4.72L67.12-4.72L67.12-4.72Q67.03-4.45 66.75-3.72L66.75-3.72L66.75-3.72Q66.48-3.00 66.12-2.27L66.12-2.27L66.12-2.27Q65.75-1.54 65.39-0.91L65.39-0.91L65.39-0.91Q65.03-0.27 64.85 0L64.85 0L64.85 0Q62.67-0.45 61.30-1.14L61.30-1.14L61.30-1.14Q59.94-1.82 59.94-4.09ZM58.40-38.96L58.40-38.96L58.40-38.96Q57.31-38.96 55.35-37.42L55.35-37.42L55.35-37.42Q53.40-35.87 51.50-33.83L51.50-33.83L51.50-33.83Q49.59-31.79 48.13-29.74L48.13-29.74L48.13-29.74Q46.68-27.70 46.68-26.70L46.68-26.70L46.68-26.70Q47.23-26.70 48.82-26.75L48.82-26.75L48.82-26.75Q50.41-26.79 52.18-26.84L52.18-26.84L52.18-26.84Q53.95-26.88 55.54-26.97L55.54-26.97L55.54-26.97Q57.13-27.06 57.76-27.06L57.76-27.06L57.76-27.06Q58.13-27.06 58.90-27.25L58.90-27.25L58.90-27.25Q59.67-27.43 60.40-27.61L60.40-27.61L60.40-27.61Q61.12-27.79 61.71-27.97L61.71-27.97L61.71-27.97Q62.30-28.15 62.39-28.25L62.39-28.25L62.39-28.25Q62.48-28.25 62.48-28.84L62.48-28.84L62.48-28.84Q62.48-29.43 62.48-29.79L62.48-29.79L62.48-29.79Q62.48-30.52 62.26-32.06L62.26-32.06L62.26-32.06Q62.03-33.60 61.53-35.15L61.53-35.15L61.53-35.15Q61.03-36.69 60.26-37.83L60.26-37.83L60.26-37.83Q59.49-38.96 58.40-38.96ZM32.88-38.87L32.88-38.87L32.88-38.87Q32.88-37.60 33.79-35.96L33.79-35.96L33.79-35.96Q34.69-34.33 36.06-32.88L36.06-32.88L36.06-32.88Q37.42-31.42 38.96-30.42L38.96-30.42L38.96-30.42Q40.51-29.43 41.87-29.43L41.87-29.43L41.87-29.43Q43.14-29.43 44.87-30.97L44.87-30.97L44.87-30.97Q46.59-32.51 48.18-34.56L48.18-34.56L48.18-34.56Q49.77-36.60 50.86-38.51L50.86-38.51L50.86-38.51Q51.95-40.42 51.95-41.14L51.95-41.14L51.95-41.14Q51.95-42.69 50.90-43.46L50.90-43.46L50.90-43.46Q49.86-44.23 48.45-44.55L48.45-44.55L48.45-44.55Q47.04-44.87 45.50-44.87L45.50-44.87L45.50-44.87Q43.96-44.87 42.96-44.87L42.96-44.87L42.96-44.87Q41.69-44.87 39.92-44.64L39.92-44.64L39.92-44.64Q38.14-44.41 36.60-43.78L36.60-43.78L36.60-43.78Q35.06-43.14 33.97-41.96L33.97-41.96L33.97-41.96Q32.88-40.78 32.88-38.87ZM75.20-61.94L60.12-43.50L60.12-43.50Q62.12-41.14 63.85-38.42L63.85-38.42L63.85-38.42Q65.57-35.69 67.12-32.88L67.12-32.88L75.20-61.94ZM82.01-4.09L82.01-4.09L82.01-4.09Q82.01-4.90 82.01-5.36L82.01-5.36L82.01-5.36Q82.01-5.81 82.15-6.22L82.15-6.22L82.15-6.22Q82.28-6.63 82.56-7.08L82.56-7.08L82.56-7.08Q82.83-7.54 83.28-8.26L83.28-8.26L83.28-8.26Q84.01-9.54 86.01-12.71L86.01-12.71L86.01-12.71Q88.00-15.89 90.28-19.44L90.28-19.44L90.28-19.44Q92.55-22.98 94.59-26.16L94.59-26.16L94.59-26.16Q96.63-29.33 97.45-30.61L97.45-30.61L97.45-30.61Q97.54-30.70 97.95-30.70L97.95-30.70L97.95-30.70Q98.36-30.70 98.54-30.70L98.54-30.70L98.54-30.70Q98.72-30.70 99.18-30.70L99.18-30.70L99.18-30.70Q99.63-30.70 99.72-30.61L99.72-30.61L99.72-30.61Q99.81-30.52 100.13-30.15L100.13-30.15L100.13-30.15Q100.45-29.79 100.86-29.38L100.86-29.38L100.86-29.38Q101.26-28.97 101.58-28.61L101.58-28.61L101.58-28.61Q101.90-28.25 102.08-28.25L102.08-28.25L102.08-28.25Q102.90-28.25 103.81-28.79L103.81-28.79L103.81-28.79Q104.72-29.33 105.67-30.02L105.67-30.02L105.67-30.02Q106.62-30.70 107.62-31.24L107.62-31.24L107.62-31.24Q108.62-31.79 109.71-31.79L109.71-31.79L109.71-31.79Q110.89-31.79 111.89-31.24L111.89-31.24L111.89-31.24Q112.89-30.70 113.62-29.88L113.62-29.88L113.62-29.88Q114.34-29.06 114.75-28.06L114.75-28.06L114.75-28.06Q115.16-27.06 115.16-26.07L115.16-26.07L115.16-26.07Q115.16-23.98 114.57-22.07L114.57-22.07L114.57-22.07Q113.98-20.16 113.25-18.30L113.25-18.30L113.25-18.30Q112.53-16.44 111.94-14.58L111.94-14.58L111.94-14.58Q111.35-12.71 111.35-10.72L111.35-10.72L111.35-10.72Q111.35-8.72 111.80-7.86L111.80-7.86L111.80-7.86Q112.25-6.99 114.34-6.99L114.34-6.99L114.34-6.99Q116.79-6.99 119.02-7.72L119.02-7.72L119.02-7.72Q121.25-8.45 123.61-8.45L123.61-8.45L123.61-8.45Q123.61-6.27 122.29-4.81L122.29-4.81L122.29-4.81Q120.97-3.36 119.02-2.50L119.02-2.50L119.02-2.50Q117.07-1.63 114.84-1.32L114.84-1.32L114.84-1.32Q112.62-1.00 110.80-1.00L110.80-1.00L110.80-1.00Q107.35-1.00 105.76-2.95L105.76-2.95L105.76-2.95Q104.17-4.90 104.17-8.17L104.17-8.17L104.17-8.17Q104.17-10.35 104.94-12.26L104.94-12.26L104.94-12.26Q105.71-14.17 106.67-15.98L106.67-15.98L106.67-15.98Q107.62-17.80 108.44-19.62L108.44-19.62L108.44-19.62Q109.26-21.43 109.26-23.52L109.26-23.52L109.26-23.52Q109.26-24.07 109.08-24.98L109.08-24.98L109.08-24.98Q108.89-25.88 107.89-25.88L107.89-25.88L107.89-25.88Q104.90-25.88 102.49-23.98L102.49-23.98L102.49-23.98Q100.08-22.07 98.13-19.16L98.13-19.16L98.13-19.16Q96.18-16.26 94.59-12.90L94.59-12.90L94.59-12.90Q93-9.54 91.59-6.63L91.59-6.63L91.59-6.63Q90.18-3.72 88.91-1.82L88.91-1.82L88.91-1.82Q87.64 0.09 86.28 0.09L86.28 0.09L86.28 0.09Q84.37 0.09 83.19-1.09L83.19-1.09L83.19-1.09Q82.01-2.27 82.01-4.09ZM121.79-4.54L121.79-4.54L121.79-4.54Q121.79-5.90 122.61-8.40L122.61-8.40L122.61-8.40Q123.42-10.90 124.74-13.80L124.74-13.80L124.74-13.80Q126.06-16.71 127.74-19.71L127.74-19.71L127.74-19.71Q129.42-22.71 131.14-25.16L131.14-25.16L131.14-25.16Q132.87-27.61 134.41-29.15L134.41-29.15L134.41-29.15Q135.96-30.70 137.14-30.70L137.14-30.70L137.14-30.70Q139.68-30.70 139.68-28.25L139.68-28.25L139.68-28.25Q139.68-27.16 139.27-26.43L139.27-26.43L139.27-26.43Q138.86-25.70 138.32-25.07L138.32-25.07L138.32-25.07Q137.77-24.43 137.14-23.84L137.14-23.84L137.14-23.84Q136.50-23.25 136.05-22.43L136.05-22.43L136.05-22.43Q135.23-21.07 134.05-18.71L134.05-18.71L134.05-18.71Q132.87-16.35 131.73-14.12L131.73-14.12L131.73-14.12Q130.60-11.90 129.78-10.17L129.78-10.17L129.78-10.17Q128.96-8.45 128.96-8.26L128.96-8.26L128.96-7.08L128.96-7.08Q132.51-7.72 135.78-10.13L135.78-10.13L135.78-10.13Q139.05-12.53 142.00-15.80L142.00-15.80L142.00-15.80Q144.95-19.07 147.63-22.66L147.63-22.66L147.63-22.66Q150.31-26.25 152.67-29.29L152.67-29.29L152.67-29.29Q155.03-32.33 157.12-34.33L157.12-34.33L157.12-34.33Q159.21-36.33 161.02-36.33L161.02-36.33L161.02-36.33Q161.02-32.97 159.66-30.24L159.66-30.24L159.66-30.24Q158.30-27.52 156.71-24.88L156.71-24.88L156.71-24.88Q155.12-22.25 153.76-19.48L153.76-19.48L153.76-19.48Q152.40-16.71 152.40-13.26L152.40-13.26L152.40-13.26Q152.40-11.81 154.17-10.67L154.17-10.67L154.17-10.67Q155.94-9.54 158.25-8.76L158.25-8.76L158.25-8.76Q160.57-7.99 162.75-7.54L162.75-7.54L162.75-7.54Q164.93-7.08 165.75-6.99L165.75-6.99L165.75-4.63L165.75-4.63Q163.66-4.54 160.57-4.59L160.57-4.59L160.57-4.59Q157.48-4.63 154.39-5.27L154.39-5.27L154.39-5.27Q151.31-5.90 148.81-7.40L148.81-7.40L148.81-7.40Q146.31-8.90 145.49-11.81L145.49-11.81L145.49-11.81Q143.13-10.26 140.95-8.17L140.95-8.17L140.95-8.17Q138.77-6.08 136.46-4.27L136.46-4.27L136.46-4.27Q134.14-2.45 131.60-1.18L131.60-1.18L131.60-1.18Q129.06 0.09 126.06 0.09L126.06 0.09L126.06 0.09Q124.24 0.09 123.02-1.45L123.02-1.45L123.02-1.45Q121.79-3.00 121.79-4.54ZM131.87 41.32L131.87 41.32L131.87 41.32Q131.87 37.51 133.14 34.06L133.14 34.06L133.14 34.06Q134.41 30.61 136.41 27.52L136.41 27.52L136.41 27.52Q138.41 24.43 140.95 21.66L140.95 21.66L140.95 21.66Q143.50 18.89 146.04 16.44L146.04 16.44L146.04 16.44Q146.95 15.53 148.95 13.76L148.95 13.76L148.95 13.76Q150.94 11.99 153.49 9.76L153.49 9.76L153.49 9.76Q156.03 7.54 158.84 5.13L158.84 5.13L158.84 5.13Q161.66 2.72 164.25 0.54L164.25 0.54L164.25 0.54Q166.84-1.63 168.88-3.36L168.88-3.36L168.88-3.36Q170.92-5.09 171.92-5.90L171.92-5.90L171.92-5.90Q172.20-6.81 172.92-8.63L172.92-8.63L172.92-8.63Q173.65-10.44 174.60-12.81L174.60-12.81L174.60-12.81Q175.56-15.17 176.55-17.71L176.55-17.71L176.55-17.71Q177.55-20.25 178.51-22.57L178.51-22.57L178.51-22.57Q179.46-24.88 180.23-26.70L180.23-26.70L180.23-26.70Q181.00-28.52 181.37-29.43L181.37-29.43L181.37-29.43Q181.82-30.52 182.50-31.74L182.50-31.74L182.50-31.74Q183.18-32.97 184.05-34.06L184.05-34.06L184.05-34.06Q184.91-35.15 186.05-35.87L186.05-35.87L186.05-35.87Q187.18-36.60 188.54-36.60L188.54-36.60L188.54-36.60Q188.54-33.69 187.59-30.15L187.59-30.15L187.59-30.15Q186.64-26.61 185.27-23.16L185.27-23.16L185.27-23.16Q183.91-19.71 182.50-16.71L182.50-16.71L182.50-16.71Q181.10-13.71 180.19-11.81L180.19-11.81L180.19-11.81Q180.37-11.81 180.78-11.76L180.78-11.76L180.78-11.76Q181.19-11.72 181.37-11.72L181.37-11.72L181.37-11.72Q183.73-11.72 185.86-12.35L185.86-12.35L185.86-12.35Q188.00-12.99 190.36-12.99L190.36-12.99L190.36-12.99Q191.09-12.99 191.95-12.90L191.95-12.90L191.95-12.90Q192.81-12.81 193.08-11.81L193.08-11.81L193.08-11.81Q192.08-9.81 190.00-8.99L190.00-8.99L190.00-8.99Q187.91-8.17 185.50-7.63L185.50-7.63L185.50-7.63Q183.09-7.08 180.96-6.27L180.96-6.27L180.96-6.27Q178.83-5.45 177.92-3.54L177.92-3.54L177.92-3.54Q177.37-2.45 176.24-0.14L176.24-0.14L176.24-0.14Q175.10 2.18 173.69 5.04L173.69 5.04L173.69 5.04Q172.29 7.90 170.70 11.13L170.70 11.13L170.70 11.13Q169.11 14.35 167.75 17.26L167.75 17.26L167.75 17.26Q166.38 20.16 165.29 22.52L165.29 22.52L165.29 22.52Q164.20 24.88 163.75 25.97L163.75 25.97L163.75 25.97Q162.21 29.24 160.43 33.69L160.43 33.69L160.43 33.69Q158.66 38.14 156.17 42.19L156.17 42.19L156.17 42.19Q153.67 46.23 150.22 49.04L150.22 49.04L150.22 49.04Q146.77 51.86 141.95 51.86L141.95 51.86L141.95 51.86Q139.68 51.86 137.82 51.00L137.82 51.00L137.82 51.00Q135.96 50.13 134.64 48.68L134.64 48.68L134.64 48.68Q133.32 47.23 132.60 45.32L132.60 45.32L132.60 45.32Q131.87 43.41 131.87 41.32ZM136.50 39.87L136.50 39.87L136.50 39.87Q136.50 41.23 136.64 42.50L136.64 42.50L136.64 42.50Q136.78 43.78 137.27 44.82L137.27 44.82L137.27 44.82Q137.77 45.86 138.73 46.50L138.73 46.50L138.73 46.50Q139.68 47.14 141.41 47.14L141.41 47.14L141.41 47.14Q144.77 47.14 147.76 44.73L147.76 44.73L147.76 44.73Q150.76 42.32 153.17 39.01L153.17 39.01L153.17 39.01Q155.58 35.69 157.39 32.06L157.39 32.06L157.39 32.06Q159.21 28.43 160.21 25.97L160.21 25.97L160.21 25.97Q160.84 24.43 161.66 22.30L161.66 22.30L161.66 22.30Q162.48 20.16 163.39 17.80L163.39 17.80L163.39 17.80Q164.29 15.44 165.20 13.12L165.20 13.12L165.20 13.12Q166.11 10.81 166.79 8.99L166.79 8.99L166.79 8.99Q167.47 7.17 167.93 5.99L167.93 5.99L167.93 5.99Q168.38 4.81 168.38 4.72L168.38 4.72L168.38 2.36L168.38 2.36Q168.20 2.54 167.65 2.86L167.65 2.86L167.65 2.86Q167.11 3.18 166.56 3.54L166.56 3.54L166.56 3.54Q166.02 3.91 165.52 4.22L165.52 4.22L165.52 4.22Q165.02 4.54 164.84 4.72L164.84 4.72L164.84 4.72Q164.11 5.36 162.52 6.86L162.52 6.86L162.52 6.86Q160.93 8.36 158.98 10.17L158.98 10.17L158.98 10.17Q157.03 11.99 154.85 14.03L154.85 14.03L154.85 14.03Q152.67 16.08 150.72 17.94L150.72 17.94L150.72 17.94Q148.76 19.80 147.17 21.30L147.17 21.30L147.17 21.30Q145.58 22.80 144.86 23.52L144.86 23.52L144.86 23.52Q143.59 25.61 142.13 27.43L142.13 27.43L142.13 27.43Q140.68 29.24 139.45 31.15L139.45 31.15L139.45 31.15Q138.23 33.06 137.37 35.15L137.37 35.15L137.37 35.15Q136.50 37.24 136.50 39.87ZM195.45-70.11L195.45-70.11L195.45-70.11Q195.45-70.75 195.90-71.25L195.90-71.25L195.90-71.25Q196.35-71.75 197.03-72.16L197.03-72.16L197.03-72.16Q197.72-72.57 198.44-72.79L198.44-72.79L198.44-72.79Q199.17-73.02 199.62-73.02L199.62-73.02L199.62-73.02Q200.99-73.02 201.26-71.98L201.26-71.98L201.26-71.98Q201.53-70.93 201.53-69.93L201.53-69.93L201.53-69.93Q201.53-68.21 200.58-66.98L200.58-66.98L200.58-66.98Q199.62-65.75 197.81-65.75L197.81-65.75L197.81-65.75Q196.99-65.75 196.49-66.16L196.49-66.16L196.49-66.16Q195.99-66.57 195.76-67.25L195.76-67.25L195.76-67.25Q195.54-67.93 195.49-68.66L195.49-68.66L195.49-68.66Q195.45-69.39 195.45-70.11ZM190.36-5.90L190.36-5.90L190.36-5.90Q191.18-11.08 193.45-15.44L193.45-15.44L193.45-15.44Q195.72-19.80 198.67-23.02L198.67-23.02L198.67-23.02Q201.62-26.25 205.07-28.34L205.07-28.34L205.07-28.34Q208.52-30.42 211.79-31.02L211.79-31.02L211.79-31.02Q215.06-31.61 217.83-30.70L217.83-30.70L217.83-30.70Q220.60-29.79 222.33-27.06L222.33-27.06L222.33-27.06Q222.33-24.98 221.37-23.07L221.37-23.07L221.37-23.07Q220.42-21.16 219.29-19.25L219.29-19.25L219.29-19.25Q218.15-17.35 217.20-15.35L217.20-15.35L217.20-15.35Q216.24-13.35 216.24-11.08L216.24-11.08L216.24-11.08Q216.24-8.72 217.29-7.31L217.29-7.31L217.29-7.31Q218.33-5.90 220.97-5.90L220.97-5.90L220.97-5.90Q223.15-5.90 225.19-6.54L225.19-6.54L225.19-6.54Q227.23-7.17 229.32-7.17L229.32-7.17L229.32-7.17Q229.68-7.17 230.55-7.13L230.55-7.13L230.55-7.13Q231.41-7.08 231.68-7.08L231.68-7.08L231.68-7.08Q230.59-5.54 228.87-4.45L228.87-4.45L228.87-4.45Q227.14-3.36 225.23-2.59L225.23-2.59L225.23-2.59Q223.33-1.82 221.28-1.45L221.28-1.45L221.28-1.45Q219.24-1.09 217.51-1.09L217.51-1.09L217.51-1.09Q215.88-1.09 214.61-1.82L214.61-1.82L214.61-1.82Q213.34-2.54 212.43-3.72L212.43-3.72L212.43-3.72Q211.52-4.90 211.02-6.40L211.02-6.40L211.02-6.40Q210.52-7.90 210.52-9.35L210.52-9.35L210.52-9.35Q209.16-7.81 207.57-6.13L207.57-6.13L207.57-6.13Q205.98-4.45 204.21-3.09L204.21-3.09L204.21-3.09Q202.44-1.73 200.40-0.82L200.40-0.82L200.40-0.82Q198.35 0.09 196.17 0.09L196.17 0.09L196.17 0.09Q193.81 0.09 192.08-1.68L192.08-1.68L192.08-1.68Q190.36-3.45 190.36-5.90ZM196.35-8.72L196.35-8.72L196.35-8.72Q196.35-7.99 196.40-7.08L196.40-7.08L196.40-7.08Q196.44-6.18 197.53-5.90L197.53-5.90L197.53-5.90Q199.80-6.45 202.71-8.31L202.71-8.31L202.71-8.31Q205.62-10.17 208.16-12.67L208.16-12.67L208.16-12.67Q210.70-15.17 212.43-18.03L212.43-18.03L212.43-18.03Q214.15-20.89 214.15-23.52L214.15-23.52L214.15-23.52Q214.15-23.70 214.11-24.11L214.11-24.11L214.11-24.11Q214.06-24.52 214.06-24.70L214.06-24.70L214.06-24.70Q210.98-24.70 207.80-23.43L207.80-23.43L207.80-23.43Q204.62-22.16 202.08-19.94L202.08-19.94L202.08-19.94Q199.53-17.71 197.94-14.80L197.94-14.80L197.94-14.80Q196.35-11.90 196.35-8.72ZM318.42 9.63L318.42 9.63L318.42 9.63Q314.33 9.63 311.88 7.72L311.88 7.72L311.88 7.72Q309.42 5.81 308.11 2.68L308.11 2.68L308.11 2.68Q306.79-0.45 306.34-4.45L306.34-4.45L306.34-4.45Q305.88-8.45 305.75-12.62L305.75-12.62L305.75-12.62Q305.61-16.80 305.56-20.75L305.56-20.75L305.56-20.75Q305.52-24.70 304.97-27.70L304.97-27.70L304.97-27.70Q304.43-30.70 303.20-32.47L303.20-32.47L303.20-32.47Q301.98-34.24 299.43-33.97L299.43-33.97L299.43-33.97Q298.80-32.79 297.57-30.42L297.57-30.42L297.57-30.42Q296.35-28.06 294.71-25.07L294.71-25.07L294.71-25.07Q293.08-22.07 291.31-18.71L291.31-18.71L291.31-18.71Q289.54-15.35 287.90-12.35L287.90-12.35L287.90-12.35Q286.27-9.35 284.95-6.95L284.95-6.95L284.95-6.95Q283.63-4.54 283.00-3.36L283.00-3.36L283.00-3.36Q282.27-2.09 282.00-1.41L282.00-1.41L282.00-1.41Q281.72-0.73 281.41-0.32L281.41-0.32L281.41-0.32Q281.09 0.09 280.59 0.18L280.59 0.18L280.59 0.18Q280.09 0.27 279.09 0.27L279.09 0.27L279.09 0.27Q277.27 0.27 276.55-0.32L276.55-0.32L276.55-0.32Q275.82-0.91 275.82-2.72L275.82-2.72L275.82-2.72Q277.37-8.54 279.95-14.30L279.95-14.30L279.95-14.30Q282.54-20.07 285.72-25.75L285.72-25.75L285.72-25.75Q288.90-31.42 292.44-37.01L292.44-37.01L292.44-37.01Q295.98-42.59 299.43-48.04L299.43-48.04L299.43-48.04Q301.61-51.31 304.52-55.63L304.52-55.63L304.52-55.63Q307.43-59.94 311.01-63.80L311.01-63.80L311.01-63.80Q314.60-67.66 318.82-70.29L318.82-70.29L318.82-70.29Q323.05-72.93 327.86-72.93L327.86-72.93L327.86-72.93Q329.59-73.02 331.09-72.43L331.09-72.43L331.09-72.43Q332.58-71.84 333.58-70.66L333.58-70.66L333.58-70.66Q334.58-69.48 335.04-67.93L335.04-67.93L335.04-67.93Q335.49-66.39 335.13-64.57L335.13-64.57L335.13-64.57Q335.13-60.12 333.27-55.99L333.27-55.99L333.27-55.99Q331.40-51.86 328.59-48.32L328.59-48.32L328.59-48.32Q325.77-44.77 322.55-41.87L322.55-41.87L322.55-41.87Q319.32-38.96 316.51-36.87L316.51-36.87L316.51-36.87Q313.69-34.78 311.83-33.56L311.83-33.56L311.83-33.56Q309.97-32.33 309.97-32.24L309.97-32.24L309.97-32.24Q309.97-31.15 310.02-28.11L310.02-28.11L310.02-28.11Q310.06-25.07 310.29-21.16L310.29-21.16L310.29-21.16Q310.51-17.26 310.97-12.94L310.97-12.94L310.97-12.94Q311.42-8.63 312.19-4.86L312.19-4.86L312.19-4.86Q312.97-1.09 314.19 1.54L314.19 1.54L314.19 1.54Q315.42 4.18 317.14 4.81L317.14 4.81L317.14 4.81Q317.42 4.90 318.42 5.09L318.42 5.09L318.42 5.09Q319.42 5.27 320.64 5.49L320.64 5.49L320.64 5.49Q321.87 5.72 322.91 5.86L322.91 5.86L322.91 5.86Q323.96 5.99 324.23 6.08L324.23 6.08L324.23 6.08Q324.41 6.18 324.86 6.63L324.86 6.63L324.86 6.63Q325.32 7.08 325.41 7.27L325.41 7.27L325.41 7.27Q323.32 8.90 321.96 9.26L321.96 9.26L321.96 9.26Q320.60 9.63 318.42 9.63ZM302.89-41.96L302.89-41.96L302.89-41.96Q302.89-40.60 303.34-39.92L303.34-39.92L303.34-39.92Q303.79-39.23 304.61-38.96L304.61-38.96L304.61-38.96Q305.43-38.69 306.47-38.64L306.47-38.64L306.47-38.64Q307.52-38.60 308.70-38.60L308.70-38.60L308.70-38.60Q312.33-38.60 315.96-41.19L315.96-41.19L315.96-41.19Q319.60-43.78 322.55-47.54L322.55-47.54L322.55-47.54Q325.50-51.31 327.32-55.58L327.32-55.58L327.32-55.58Q329.13-59.85 329.13-63.12L329.13-63.12L329.13-63.12Q329.13-64.03 329.13-64.94L329.13-64.94L329.13-64.94Q329.13-65.84 328.95-66.62L328.95-66.62L328.95-66.62Q328.77-67.39 328.22-67.84L328.22-67.84L328.22-67.84Q327.68-68.30 326.50-68.30L326.50-68.30L326.50-68.30Q324.41-68.30 321.87-66.89L321.87-66.89L321.87-66.89Q319.32-65.48 316.69-63.21L316.69-63.21L316.69-63.21Q314.06-60.94 311.56-58.08L311.56-58.08L311.56-58.08Q309.06-55.22 307.15-52.27L307.15-52.27L307.15-52.27Q305.25-49.32 304.07-46.59L304.07-46.59L304.07-46.59Q302.89-43.87 302.89-41.96ZM329.59-5.90L329.59-5.90L329.59-5.90Q330.40-11.08 332.67-15.44L332.67-15.44L332.67-15.44Q334.95-19.80 337.90-23.02L337.90-23.02L337.90-23.02Q340.85-26.25 344.30-28.34L344.30-28.34L344.30-28.34Q347.75-30.42 351.02-31.02L351.02-31.02L351.02-31.02Q354.29-31.61 357.06-30.70L357.06-30.70L357.06-30.70Q359.83-29.79 361.56-27.06L361.56-27.06L361.56-27.06Q361.56-24.98 360.60-23.07L360.60-23.07L360.60-23.07Q359.65-21.16 358.51-19.25L358.51-19.25L358.51-19.25Q357.38-17.35 356.42-15.35L356.42-15.35L356.42-15.35Q355.47-13.35 355.47-11.08L355.47-11.08L355.47-11.08Q355.47-8.72 356.52-7.31L356.52-7.31L356.52-7.31Q357.56-5.90 360.19-5.90L360.19-5.90L360.19-5.90Q362.37-5.90 364.42-6.54L364.42-6.54L364.42-6.54Q366.46-7.17 368.55-7.17L368.55-7.17L368.55-7.17Q368.91-7.17 369.77-7.13L369.77-7.13L369.77-7.13Q370.64-7.08 370.91-7.08L370.91-7.08L370.91-7.08Q369.82-5.54 368.09-4.45L368.09-4.45L368.09-4.45Q366.37-3.36 364.46-2.59L364.46-2.59L364.46-2.59Q362.55-1.82 360.51-1.45L360.51-1.45L360.51-1.45Q358.47-1.09 356.74-1.09L356.74-1.09L356.74-1.09Q355.11-1.09 353.84-1.82L353.84-1.82L353.84-1.82Q352.56-2.54 351.66-3.72L351.66-3.72L351.66-3.72Q350.75-4.90 350.25-6.40L350.25-6.40L350.25-6.40Q349.75-7.90 349.75-9.35L349.75-9.35L349.75-9.35Q348.39-7.81 346.80-6.13L346.80-6.13L346.80-6.13Q345.21-4.45 343.44-3.09L343.44-3.09L343.44-3.09Q341.67-1.73 339.62-0.82L339.62-0.82L339.62-0.82Q337.58 0.09 335.40 0.09L335.40 0.09L335.40 0.09Q333.04 0.09 331.31-1.68L331.31-1.68L331.31-1.68Q329.59-3.45 329.59-5.90ZM335.58-8.72L335.58-8.72L335.58-8.72Q335.58-7.99 335.63-7.08L335.63-7.08L335.63-7.08Q335.67-6.18 336.76-5.90L336.76-5.90L336.76-5.90Q339.03-6.45 341.94-8.31L341.94-8.31L341.94-8.31Q344.84-10.17 347.39-12.67L347.39-12.67L347.39-12.67Q349.93-15.17 351.66-18.03L351.66-18.03L351.66-18.03Q353.38-20.89 353.38-23.52L353.38-23.52L353.38-23.52Q353.38-23.70 353.34-24.11L353.34-24.11L353.34-24.11Q353.29-24.52 353.29-24.70L353.29-24.70L353.29-24.70Q350.20-24.70 347.02-23.43L347.02-23.43L347.02-23.43Q343.85-22.16 341.30-19.94L341.30-19.94L341.30-19.94Q338.76-17.71 337.17-14.80L337.17-14.80L337.17-14.80Q335.58-11.90 335.58-8.72ZM399.34 0.09L399.34 0.09L399.34 0.09Q397.07 0.45 395.20-0.68L395.20-0.68L395.20-0.68Q393.34-1.82 392.25-3.68L392.25-3.68L392.25-3.68Q391.16-5.54 390.98-7.77L390.98-7.77L390.98-7.77Q390.80-9.99 391.89-11.81L391.89-11.81L391.89-11.81Q395.89-16.98 397.34-20.03L397.34-20.03L397.34-20.03Q398.79-23.07 398.38-24.29L398.38-24.29L398.38-24.29Q397.97-25.52 396.11-25.29L396.11-25.29L396.11-25.29Q394.25-25.07 391.62-23.66L391.62-23.66L391.62-23.66Q388.98-22.25 385.94-19.98L385.94-19.98L385.94-19.98Q382.90-17.71 380.26-14.99L380.26-14.99L380.26-14.99Q377.63-12.26 375.68-9.31L375.68-9.31L375.68-9.31Q373.73-6.36 373.18-3.54L373.18-3.54L373.18-3.54Q372.27-3.00 371.64-2.68L371.64-2.68L371.64-2.68Q371.00-2.36 370.18-2.36L370.18-2.36L370.18-2.36Q368.82-2.36 368.55-3.27L368.55-3.27L368.55-3.27Q368.28-4.18 368.28-5.18L368.28-5.18L368.28-5.18Q368.28-7.45 369.68-9.85L369.68-9.85L369.68-9.85Q371.09-12.26 372.95-14.40L372.95-14.40L372.95-14.40Q374.82-16.53 376.54-18.30L376.54-18.30L376.54-18.30Q378.27-20.07 378.99-21.16L378.99-21.16L378.99-21.16Q381.26-24.88 383.53-29.20L383.53-29.20L383.53-29.20Q385.80-33.51 388.08-38.01L388.08-38.01L388.08-38.01Q390.35-42.50 392.75-46.91L392.75-46.91L392.75-46.91Q395.16-51.31 397.79-55.31L397.79-55.31L397.79-55.31Q398.25-56.04 398.56-56.31L398.56-56.31L398.56-56.31Q398.88-56.58 399.52-56.58L399.52-56.58L399.52-56.58Q400.25-56.58 400.61-56.31L400.61-56.31L400.61-56.31Q400.97-56.04 401.33-55.31L401.33-55.31L401.33-55.31Q401.33-54.95 401.20-54.13L401.20-54.13L401.20-54.13Q401.06-53.31 400.93-52.36L400.93-52.36L400.93-52.36Q400.79-51.40 400.56-50.59L400.56-50.59L400.56-50.59Q400.34-49.77 400.25-49.50L400.25-49.50L400.25-49.50Q399.70-48.41 398.43-45.68L398.43-45.68L398.43-45.68Q397.16-42.96 395.66-39.87L395.66-39.87L395.66-39.87Q394.16-36.78 392.80-33.83L392.80-33.83L392.80-33.83Q391.44-30.88 390.80-29.43L390.80-29.43L390.80-29.43Q392.16-30.33 393.25-30.83L393.25-30.83L393.25-30.83Q394.34-31.33 395.39-31.56L395.39-31.56L395.39-31.56Q396.43-31.79 397.57-31.83L397.57-31.83L397.57-31.83Q398.70-31.88 400.06-31.88L400.06-31.88L400.06-31.88Q403.33-31.06 404.38-29.43L404.38-29.43L404.38-29.43Q405.42-27.79 405.01-25.66L405.01-25.66L405.01-25.66Q404.60-23.52 403.24-20.98L403.24-20.98L403.24-20.98Q401.88-18.44 400.38-15.85L400.38-15.85L400.38-15.85Q398.88-13.26 397.70-10.85L397.70-10.85L397.70-10.85Q396.52-8.45 396.61-6.45L396.61-6.45L396.61-6.45Q396.61-5.63 396.98-5.27L396.98-5.27L396.98-5.27Q397.34-4.90 397.88-4.72L397.88-4.72L397.88-4.72Q398.43-4.54 399.06-4.54L399.06-4.54L399.06-4.54Q399.70-4.54 400.25-4.54L400.25-4.54L400.25-4.54Q402.15-4.54 403.92-5.13L403.92-5.13L403.92-5.13Q405.69-5.72 407.42-6.45L407.42-6.45L407.42-6.45Q409.15-7.17 410.92-7.77L410.92-7.77L410.92-7.77Q412.69-8.36 414.59-8.36L414.59-8.36L414.59-8.36Q414.59-6.63 412.87-5.09L412.87-5.09L412.87-5.09Q411.14-3.54 408.74-2.41L408.74-2.41L408.74-2.41Q406.33-1.27 403.70-0.59L403.70-0.59L403.70-0.59Q401.06 0.09 399.34 0.09ZM411.78-4.54L411.78-4.54L411.78-4.54Q411.78-5.90 412.60-8.40L412.60-8.40L412.60-8.40Q413.41-10.90 414.73-13.80L414.73-13.80L414.73-13.80Q416.05-16.71 417.73-19.71L417.73-19.71L417.73-19.71Q419.41-22.71 421.13-25.16L421.13-25.16L421.13-25.16Q422.86-27.61 424.40-29.15L424.40-29.15L424.40-29.15Q425.95-30.70 427.13-30.70L427.13-30.70L427.13-30.70Q429.67-30.70 429.67-28.25L429.67-28.25L429.67-28.25Q429.67-27.16 429.26-26.43L429.26-26.43L429.26-26.43Q428.85-25.70 428.31-25.07L428.31-25.07L428.31-25.07Q427.76-24.43 427.13-23.84L427.13-23.84L427.13-23.84Q426.49-23.25 426.04-22.43L426.04-22.43L426.04-22.43Q425.22-21.07 424.04-18.71L424.04-18.71L424.04-18.71Q422.86-16.35 421.72-14.12L421.72-14.12L421.72-14.12Q420.59-11.90 419.77-10.17L419.77-10.17L419.77-10.17Q418.95-8.45 418.95-8.26L418.95-8.26L418.95-7.08L418.95-7.08Q422.50-7.72 425.77-10.13L425.77-10.13L425.77-10.13Q429.04-12.53 431.99-15.80L431.99-15.80L431.99-15.80Q434.94-19.07 437.62-22.66L437.62-22.66L437.62-22.66Q440.30-26.25 442.66-29.29L442.66-29.29L442.66-29.29Q445.02-32.33 447.11-34.33L447.11-34.33L447.11-34.33Q449.20-36.33 451.01-36.33L451.01-36.33L451.01-36.33Q451.01-32.97 449.65-30.24L449.65-30.24L449.65-30.24Q448.29-27.52 446.70-24.88L446.70-24.88L446.70-24.88Q445.11-22.25 443.75-19.48L443.75-19.48L443.75-19.48Q442.39-16.71 442.39-13.26L442.39-13.26L442.39-13.26Q442.39-11.81 444.16-10.67L444.16-10.67L444.16-10.67Q445.93-9.54 448.24-8.76L448.24-8.76L448.24-8.76Q450.56-7.99 452.74-7.54L452.74-7.54L452.74-7.54Q454.92-7.08 455.74-6.99L455.74-6.99L455.74-4.63L455.74-4.63Q453.65-4.54 450.56-4.59L450.56-4.59L450.56-4.59Q447.47-4.63 444.38-5.27L444.38-5.27L444.38-5.27Q441.30-5.90 438.80-7.40L438.80-7.40L438.80-7.40Q436.30-8.90 435.48-11.81L435.48-11.81L435.48-11.81Q433.12-10.26 430.94-8.17L430.94-8.17L430.94-8.17Q428.76-6.08 426.45-4.27L426.45-4.27L426.45-4.27Q424.13-2.45 421.59-1.18L421.59-1.18L421.59-1.18Q419.04 0.09 416.05 0.09L416.05 0.09L416.05 0.09Q414.23 0.09 413.01-1.45L413.01-1.45L413.01-1.45Q411.78-3.00 411.78-4.54ZM454.83-8.26L454.83-8.26L454.83-8.26Q454.83-8.90 454.96-10.22L454.96-10.22L454.96-10.22Q455.10-11.53 455.28-12.81L455.28-12.81L455.28-12.81Q455.46-14.08 455.65-15.12L455.65-15.12L455.65-15.12Q455.83-16.17 456.01-16.44L456.01-16.44L472.54-49.50L472.54-49.50Q472.90-50.22 473.95-51.54L473.95-51.54L473.95-51.54Q474.99-52.86 476.22-54.27L476.22-54.27L476.22-54.27Q477.44-55.67 478.67-56.90L478.67-56.90L478.67-56.90Q479.89-58.13 480.71-58.85L480.71-58.85L480.71-58.85Q481.35-58.67 481.62-58.22L481.62-58.22L481.62-58.22Q481.89-57.76 481.98-57.17L481.98-57.17L481.98-57.17Q482.07-56.58 482.03-56.04L482.03-56.04L482.03-56.04Q481.98-55.49 481.98-55.13L481.98-55.13L481.98-55.13Q481.98-54.67 481.98-53.86L481.98-53.86L481.98-53.86Q481.98-53.04 481.89-53.04L481.89-53.04L481.89-53.04Q480.98-50.59 479.08-47.23L479.08-47.23L479.08-47.23Q477.17-43.87 474.81-40.05L474.81-40.05L474.81-40.05Q472.45-36.24 469.95-32.10L469.95-32.10L469.95-32.10Q467.45-27.97 465.41-23.93L465.41-23.93L465.41-23.93Q463.37-19.89 462.05-16.17L462.05-16.17L462.05-16.17Q460.73-12.44 460.73-9.35L460.73-9.35L460.73-9.35Q460.73-7.72 461.69-6.77L461.69-6.77L461.69-6.77Q462.64-5.81 463.73-5.09L463.73-5.09L463.73-5.09Q464.82-4.36 465.77-3.63L465.77-3.63L465.77-3.63Q466.73-2.91 466.73-1.63L466.73-1.63L466.73-1.63Q466.73-0.82 466.00-0.41L466.00-0.41L466.00-0.41Q465.27 0 464.27 0L464.27 0L464.27 0Q460.46 0 457.64-2.13L457.64-2.13L457.64-2.13Q454.83-4.27 454.83-8.26Z" fill="#91b600"></path></g></g><style>text {
  font-size: 64px;
  font-family: Arial Black;
  dominant-baseline: central;
  text-anchor: middle;
}</style></svg>